<svg width="303" height="80" viewBox="0 0 303 80" fill="none" xmlns="http://www.w3.org/2000/svg">
<path d="M46.513 65.0888H38.8876L32.2472 47.111L25.6392 65.0888H18.0137L0 16.2603H8.85273L21.8276 51.4001L27.8214 35.0911L20.8727 16.2603H29.7602L42.6991 51.4001L60.101 0H68.9537L46.513 65.0888Z" fill="white"/>
<path d="M138.146 65.0885H129.293L116.319 29.9464L96.8299 79.9999H87.9424L112.507 16.26H120.133L138.146 65.0885Z" fill="white"/>
<path d="M202.54 38.7669C204.879 38.7669 206.791 38.1156 208.279 36.8095C209.764 35.5058 210.531 33.8312 210.576 31.7858C210.508 29.7438 209.726 28.0692 208.227 26.7643C206.729 25.4582 204.832 24.8046 202.54 24.8046H187.933V38.7657H202.54V38.7669ZM222.699 65.0887H212.859L200.021 47.3125H187.933V65.0887H179.351V16.2266H202.54C207.513 16.2266 211.53 17.6624 214.595 20.533C217.659 23.4059 219.192 27.1456 219.192 31.7545C219.192 35.2056 218.311 38.1967 216.553 40.7254C214.791 43.2599 212.325 45.0886 209.146 46.2243L222.699 65.0898V65.0887Z" fill="white"/>
<path d="M285.73 38.7669C288.069 38.7669 289.98 38.1156 291.468 36.8095C292.954 35.5058 293.72 33.8312 293.766 31.7858C293.721 29.7438 292.944 28.0692 291.435 26.7643C289.923 25.4582 288.021 24.8046 285.731 24.8046H271.122V38.7657H285.731L285.73 38.7669ZM271.121 65.0887H262.54V16.2266H285.73C290.702 16.2266 294.719 17.6624 297.785 20.533C300.848 23.4059 302.381 27.1456 302.381 31.7545C302.381 34.8174 301.687 37.5211 300.302 39.8574C298.918 42.196 296.977 44.0248 294.48 45.3389C291.982 46.6577 289.065 47.3148 285.73 47.3148H271.121V65.091V65.0887Z" fill="white"/>
</svg>
