<?xml version="1.0" encoding="iso-8859-1"?>
<!-- Generator: Adobe Illustrator 19.0.0, SVG Export Plug-In . SVG Version: 6.00 Build 0)  -->
<svg version="1.1" id="Capa_1" xmlns="http://www.w3.org/2000/svg" xmlns:xlink="http://www.w3.org/1999/xlink" x="0px" y="0px"
	 viewBox="0 0 512.001 512.001" style="enable-background:new 0 0 512.001 512.001;" xml:space="preserve">
<path style="fill:#FFDC64;" d="M221.523,479.901l177.573-305.754c4.021-6.923-1.681-15.441-9.614-14.363l-118.117,16.055
	l28.222-148.165c0.951-4.995-5.488-7.857-8.558-3.804L116.435,254.333c-5.085,6.713,0.299,16.257,8.675,15.375L255.333,256
	l-42.691,220.571C211.612,481.892,218.801,484.587,221.523,479.901z"/>
<path style="fill:#FFC850;" d="M171.034,238.001c-3.261,0.261-5.427-3.304-3.693-6.078L297.879,23.061
	c-1.942-1.536-4.999-1.635-6.851,0.809L116.435,254.333c-5.085,6.713,0.299,16.257,8.675,15.375L255.333,256l-42.691,220.571
	c-0.575,2.975,1.432,5.068,3.777,5.57l73.154-231.485c3.429-10.85-5.222-21.72-16.566-20.812L171.034,238.001z"/>
<path d="M415.208,152.963c-1.593-2.381-4.414-3.645-7.242-3.26l-127.283,17.301l16.372-85.954c0.775-4.069-1.895-7.996-5.964-8.771
	c-4.06-0.774-7.995,1.896-8.771,5.964l-18.322,96.193c-0.452,2.37,0.265,4.813,1.925,6.564c1.659,1.751,4.063,2.596,6.452,2.271
	l122.411-16.639L223.029,462.374l30.357-156.849c0.787-4.066-1.871-8.001-5.938-8.788c-4.066-0.79-8.002,1.871-8.788,5.938
	l-38.787,200.4c-0.695,3.593,1.304,7.163,4.73,8.447c0.863,0.324,1.753,0.479,2.631,0.479c2.608,0,5.112-1.366,6.487-3.734
	L415.46,160.901C416.899,158.424,416.802,155.344,415.208,152.963z"/>
<path d="M244.866,270.612c-0.787,4.066,1.871,8.001,5.938,8.788c0.481,0.093,0.96,0.138,1.433,0.138c3.521,0,6.662-2.49,7.355-6.076
	l3.104-16.036c0.452-2.334-0.229-4.743-1.836-6.495c-1.607-1.751-3.939-2.632-6.312-2.389l-135.089,14.22l170.61-225.206
	l-1.642,8.622c-0.775,4.069,1.895,7.996,5.964,8.771c4.063,0.777,7.996-1.895,8.771-5.964l7.635-40.081
	c0.652-3.422-1.138-6.842-4.32-8.257c-3.186-1.415-6.922-0.452-9.025,2.325L97.048,267.504c-1.805,2.384-2.022,5.61-0.554,8.215
	c1.469,2.604,4.337,4.084,7.317,3.773l142.233-14.972L244.866,270.612z"/>
<g>
</g>
<g>
</g>
<g>
</g>
<g>
</g>
<g>
</g>
<g>
</g>
<g>
</g>
<g>
</g>
<g>
</g>
<g>
</g>
<g>
</g>
<g>
</g>
<g>
</g>
<g>
</g>
<g>
</g>
</svg>
